<mxfile host="Electron" modified="2024-04-02T09:41:38.098Z" agent="Mozilla/5.0 (Windows NT 10.0; Win64; x64) AppleWebKit/537.36 (KHTML, like Gecko) draw.io/21.6.5 Chrome/114.0.5735.243 Electron/25.3.1 Safari/537.36" etag="9FV3Iq3DhtkJeWXkttOH" version="21.6.5" type="device" pages="2">
  <diagram id="JLwxLcaRAPwBAlPpXBgs" name="Desenho Arquitetura">
    <mxGraphModel dx="2084" dy="1918" grid="1" gridSize="10" guides="1" tooltips="1" connect="1" arrows="1" fold="1" page="1" pageScale="1" pageWidth="827" pageHeight="1169" math="0" shadow="0">
      <root>
        <mxCell id="0" />
        <mxCell id="1" parent="0" />
        <mxCell id="SkFsixidQeXfe-8qGhiD-1" value="On-Premise - convivência" style="sketch=0;outlineConnect=0;gradientColor=none;html=1;whiteSpace=wrap;fontSize=12;fontStyle=0;shape=mxgraph.aws4.group;grIcon=mxgraph.aws4.group_on_premise;strokeColor=#AAB7B8;fillColor=none;verticalAlign=top;align=left;spacingLeft=30;fontColor=#AAB7B8;dashed=0;" vertex="1" parent="1">
          <mxGeometry x="395" y="-85" width="270" height="150" as="geometry" />
        </mxCell>
        <mxCell id="tqKhtKAN0oaPHte2KMAR-1" value="AWS Cloud" style="sketch=0;outlineConnect=0;gradientColor=none;html=1;whiteSpace=wrap;fontSize=12;fontStyle=0;shape=mxgraph.aws4.group;grIcon=mxgraph.aws4.group_aws_cloud;strokeColor=#AAB7B8;fillColor=none;verticalAlign=top;align=left;spacingLeft=30;fontColor=#AAB7B8;dashed=0;" vertex="1" parent="1">
          <mxGeometry x="60" y="90" width="960" height="600" as="geometry" />
        </mxCell>
        <mxCell id="ykXJOxwJJedwyhcTgKym-24" value="" style="rounded=0;whiteSpace=wrap;html=1;opacity=50;strokeWidth=1;perimeterSpacing=0;fillColor=#fff2cc;strokeColor=#d6b656;" parent="1" vertex="1">
          <mxGeometry x="120" y="130" width="820" height="470" as="geometry" />
        </mxCell>
        <mxCell id="EYzNvq9kzJKcQ_iYo4Zr-1" style="edgeStyle=orthogonalEdgeStyle;rounded=0;orthogonalLoop=1;jettySize=auto;html=1;" parent="1" source="EYzNvq9kzJKcQ_iYo4Zr-2" edge="1">
          <mxGeometry relative="1" as="geometry">
            <mxPoint x="480" y="205" as="targetPoint" />
          </mxGeometry>
        </mxCell>
        <mxCell id="EYzNvq9kzJKcQ_iYo4Zr-2" value="" style="sketch=0;outlineConnect=0;fontColor=#232F3E;gradientColor=none;fillColor=#3F8624;strokeColor=none;dashed=0;verticalLabelPosition=bottom;verticalAlign=top;align=center;html=1;fontSize=12;fontStyle=0;aspect=fixed;pointerEvents=1;shape=mxgraph.aws4.bucket;" parent="1" vertex="1">
          <mxGeometry x="227.5" y="166" width="75" height="78" as="geometry" />
        </mxCell>
        <mxCell id="EYzNvq9kzJKcQ_iYo4Zr-3" style="edgeStyle=orthogonalEdgeStyle;rounded=0;orthogonalLoop=1;jettySize=auto;html=1;" parent="1" source="EYzNvq9kzJKcQ_iYo4Zr-4" target="EYzNvq9kzJKcQ_iYo4Zr-6" edge="1">
          <mxGeometry relative="1" as="geometry" />
        </mxCell>
        <mxCell id="EYzNvq9kzJKcQ_iYo4Zr-4" value="receber contratos" style="rounded=0;whiteSpace=wrap;html=1;fillColor=#ffe6cc;strokeColor=#d79b00;" parent="1" vertex="1">
          <mxGeometry x="190" y="-270" width="120" height="60" as="geometry" />
        </mxCell>
        <mxCell id="EYzNvq9kzJKcQ_iYo4Zr-5" style="edgeStyle=orthogonalEdgeStyle;rounded=0;orthogonalLoop=1;jettySize=auto;html=1;" parent="1" source="EYzNvq9kzJKcQ_iYo4Zr-6" target="EYzNvq9kzJKcQ_iYo4Zr-7" edge="1">
          <mxGeometry relative="1" as="geometry" />
        </mxCell>
        <mxCell id="EYzNvq9kzJKcQ_iYo4Zr-6" value="validar contratos" style="rounded=0;whiteSpace=wrap;html=1;fillColor=#dae8fc;strokeColor=#6c8ebf;" parent="1" vertex="1">
          <mxGeometry x="449.5" y="-270" width="120" height="60" as="geometry" />
        </mxCell>
        <mxCell id="EYzNvq9kzJKcQ_iYo4Zr-7" value="responder portabilidade" style="rounded=0;whiteSpace=wrap;html=1;fillColor=#e1d5e7;strokeColor=#9673a6;" parent="1" vertex="1">
          <mxGeometry x="705" y="-270" width="120" height="60" as="geometry" />
        </mxCell>
        <mxCell id="EYzNvq9kzJKcQ_iYo4Zr-8" value="Receber lote de contratos de portabilidade, pedido individual de cada cliente que foi ao canal para portar esse contrato. Após a solicitação a informação é enviada para a CIPque manda um outro arquivopara o banco itaú" style="text;html=1;strokeColor=none;fillColor=none;align=center;verticalAlign=middle;whiteSpace=wrap;rounded=0;" parent="1" vertex="1">
          <mxGeometry x="-230" y="380" width="250" height="90" as="geometry" />
        </mxCell>
        <mxCell id="EYzNvq9kzJKcQ_iYo4Zr-9" value="receber-contratos" style="text;html=1;strokeColor=none;fillColor=none;align=center;verticalAlign=middle;whiteSpace=wrap;rounded=0;" parent="1" vertex="1">
          <mxGeometry x="227.5" y="260" width="60" height="30" as="geometry" />
        </mxCell>
        <mxCell id="EYzNvq9kzJKcQ_iYo4Zr-11" value="processar-contratos" style="text;html=1;strokeColor=none;fillColor=none;align=center;verticalAlign=middle;whiteSpace=wrap;rounded=0;" parent="1" vertex="1">
          <mxGeometry x="494.5" y="260" width="60" height="30" as="geometry" />
        </mxCell>
        <mxCell id="-9clWhiXvW8Nyw2myK7u-17" style="edgeStyle=orthogonalEdgeStyle;rounded=0;orthogonalLoop=1;jettySize=auto;html=1;" parent="1" source="EYzNvq9kzJKcQ_iYo4Zr-12" target="-9clWhiXvW8Nyw2myK7u-16" edge="1">
          <mxGeometry relative="1" as="geometry" />
        </mxCell>
        <mxCell id="EYzNvq9kzJKcQ_iYo4Zr-12" value="" style="sketch=0;points=[[0,0,0],[0.25,0,0],[0.5,0,0],[0.75,0,0],[1,0,0],[0,1,0],[0.25,1,0],[0.5,1,0],[0.75,1,0],[1,1,0],[0,0.25,0],[0,0.5,0],[0,0.75,0],[1,0.25,0],[1,0.5,0],[1,0.75,0]];outlineConnect=0;fontColor=#232F3E;gradientColor=#4D72F3;gradientDirection=north;fillColor=#3334B9;strokeColor=#ffffff;dashed=0;verticalLabelPosition=bottom;verticalAlign=top;align=center;html=1;fontSize=12;fontStyle=0;aspect=fixed;shape=mxgraph.aws4.resourceIcon;resIcon=mxgraph.aws4.dynamodb;" parent="1" vertex="1">
          <mxGeometry x="485.5" y="366" width="78" height="78" as="geometry" />
        </mxCell>
        <mxCell id="tqKhtKAN0oaPHte2KMAR-2" style="edgeStyle=orthogonalEdgeStyle;rounded=0;orthogonalLoop=1;jettySize=auto;html=1;" edge="1" parent="1" source="EYzNvq9kzJKcQ_iYo4Zr-16" target="EYzNvq9kzJKcQ_iYo4Zr-2">
          <mxGeometry relative="1" as="geometry" />
        </mxCell>
        <mxCell id="EYzNvq9kzJKcQ_iYo4Zr-16" value="XML" style="sketch=0;outlineConnect=0;fontColor=#232F3E;gradientColor=none;fillColor=#B0084D;strokeColor=none;dashed=0;verticalLabelPosition=bottom;verticalAlign=top;align=center;html=1;fontSize=12;fontStyle=0;aspect=fixed;pointerEvents=1;shape=mxgraph.aws4.documents;" parent="1" vertex="1">
          <mxGeometry x="-80" y="166" width="64" height="78" as="geometry" />
        </mxCell>
        <mxCell id="EYzNvq9kzJKcQ_iYo4Zr-17" value="XML" style="sketch=0;outlineConnect=0;fontColor=#232F3E;gradientColor=none;fillColor=#B0084D;strokeColor=none;dashed=0;verticalLabelPosition=bottom;verticalAlign=top;align=center;html=1;fontSize=12;fontStyle=0;aspect=fixed;pointerEvents=1;shape=mxgraph.aws4.documents;" parent="1" vertex="1">
          <mxGeometry x="1078" y="160" width="64" height="78" as="geometry" />
        </mxCell>
        <mxCell id="EYzNvq9kzJKcQ_iYo4Zr-18" value="Processar-Contratos: Aplicação em Java responsável por&amp;nbsp; processar os pedidos de portabilidade recebidos pela B3:&amp;nbsp;&lt;br&gt;&lt;br&gt;1 - Validar físicamente os contratos: Verifica se os contratos possuem todas as informações necessárias para o processamento, caso contrário o contrato será&amp;nbsp; processado como: &quot;Informações incompletas&quot;.&lt;br&gt;&lt;br&gt;2 - Processar os pedidos: Consulta a base de pedidos de portabilidade, nesse momento o programa irá consultar: 2.1 - Contratos que atingiram a data limite de retorno para a CIP.&lt;br&gt;2.2 - Contratos retidos, com status de retenção e será retornado o motivo da retenção." style="text;html=1;strokeColor=none;fillColor=none;align=center;verticalAlign=middle;whiteSpace=wrap;rounded=0;" parent="1" vertex="1">
          <mxGeometry x="-273.5" y="600" width="317.5" height="30" as="geometry" />
        </mxCell>
        <mxCell id="NEdI6T9qCpGgbSEisQpF-1" style="edgeStyle=orthogonalEdgeStyle;rounded=0;orthogonalLoop=1;jettySize=auto;html=1;" parent="1" source="EYzNvq9kzJKcQ_iYo4Zr-19" target="EYzNvq9kzJKcQ_iYo4Zr-17" edge="1">
          <mxGeometry relative="1" as="geometry" />
        </mxCell>
        <mxCell id="EYzNvq9kzJKcQ_iYo4Zr-19" value="" style="sketch=0;points=[[0,0,0],[0.25,0,0],[0.5,0,0],[0.75,0,0],[1,0,0],[0,1,0],[0.25,1,0],[0.5,1,0],[0.75,1,0],[1,1,0],[0,0.25,0],[0,0.5,0],[0,0.75,0],[1,0.25,0],[1,0.5,0],[1,0.75,0]];outlineConnect=0;fontColor=#232F3E;gradientColor=#FF4F8B;gradientDirection=north;fillColor=#BC1356;strokeColor=#ffffff;dashed=0;verticalLabelPosition=bottom;verticalAlign=top;align=center;html=1;fontSize=12;fontStyle=0;aspect=fixed;shape=mxgraph.aws4.resourceIcon;resIcon=mxgraph.aws4.step_functions;" parent="1" vertex="1">
          <mxGeometry x="485.5" y="160" width="78" height="78" as="geometry" />
        </mxCell>
        <mxCell id="ykXJOxwJJedwyhcTgKym-11" style="edgeStyle=orthogonalEdgeStyle;rounded=0;orthogonalLoop=1;jettySize=auto;html=1;" parent="1" edge="1">
          <mxGeometry relative="1" as="geometry">
            <mxPoint x="708" y="405" as="targetPoint" />
            <mxPoint x="900" y="405" as="sourcePoint" />
          </mxGeometry>
        </mxCell>
        <mxCell id="ykXJOxwJJedwyhcTgKym-22" style="edgeStyle=orthogonalEdgeStyle;rounded=0;orthogonalLoop=1;jettySize=auto;html=1;entryX=1;entryY=0.5;entryDx=0;entryDy=0;entryPerimeter=0;" parent="1" target="ykXJOxwJJedwyhcTgKym-20" edge="1">
          <mxGeometry relative="1" as="geometry">
            <mxPoint x="900" y="405" as="sourcePoint" />
          </mxGeometry>
        </mxCell>
        <mxCell id="ykXJOxwJJedwyhcTgKym-12" style="edgeStyle=orthogonalEdgeStyle;rounded=0;orthogonalLoop=1;jettySize=auto;html=1;" parent="1" target="EYzNvq9kzJKcQ_iYo4Zr-12" edge="1">
          <mxGeometry relative="1" as="geometry">
            <mxPoint x="630" y="405" as="sourcePoint" />
          </mxGeometry>
        </mxCell>
        <mxCell id="ykXJOxwJJedwyhcTgKym-14" value="" style="outlineConnect=0;dashed=0;verticalLabelPosition=bottom;verticalAlign=top;align=center;html=1;shape=mxgraph.aws3.lambda_function;fillColor=#F58534;gradientColor=none;" parent="1" vertex="1">
          <mxGeometry x="640" y="360" width="69" height="72" as="geometry" />
        </mxCell>
        <mxCell id="ykXJOxwJJedwyhcTgKym-15" value="atualizar-portabilidade" style="text;html=1;align=center;verticalAlign=middle;resizable=0;points=[];autosize=1;strokeColor=none;fillColor=none;" parent="1" vertex="1">
          <mxGeometry x="610" y="444" width="140" height="30" as="geometry" />
        </mxCell>
        <mxCell id="ykXJOxwJJedwyhcTgKym-16" value="" style="endArrow=classic;startArrow=classic;html=1;rounded=0;exitX=0.5;exitY=0;exitDx=0;exitDy=0;exitPerimeter=0;entryX=0.5;entryY=1;entryDx=0;entryDy=0;entryPerimeter=0;" parent="1" source="EYzNvq9kzJKcQ_iYo4Zr-12" target="EYzNvq9kzJKcQ_iYo4Zr-19" edge="1">
          <mxGeometry width="50" height="50" relative="1" as="geometry">
            <mxPoint x="580" y="260" as="sourcePoint" />
            <mxPoint x="630" y="210" as="targetPoint" />
          </mxGeometry>
        </mxCell>
        <mxCell id="ykXJOxwJJedwyhcTgKym-23" style="edgeStyle=orthogonalEdgeStyle;rounded=0;orthogonalLoop=1;jettySize=auto;html=1;entryX=0.5;entryY=1;entryDx=0;entryDy=0;entryPerimeter=0;" parent="1" source="ykXJOxwJJedwyhcTgKym-20" target="EYzNvq9kzJKcQ_iYo4Zr-12" edge="1">
          <mxGeometry relative="1" as="geometry" />
        </mxCell>
        <mxCell id="ykXJOxwJJedwyhcTgKym-20" value="" style="outlineConnect=0;dashed=0;verticalLabelPosition=bottom;verticalAlign=top;align=center;html=1;shape=mxgraph.aws3.lambda_function;fillColor=#F58534;gradientColor=none;" parent="1" vertex="1">
          <mxGeometry x="640" y="490" width="69" height="72" as="geometry" />
        </mxCell>
        <mxCell id="ykXJOxwJJedwyhcTgKym-21" value="consultar-contratos" style="text;html=1;align=center;verticalAlign=middle;resizable=0;points=[];autosize=1;strokeColor=none;fillColor=none;" parent="1" vertex="1">
          <mxGeometry x="615" y="570" width="130" height="30" as="geometry" />
        </mxCell>
        <mxCell id="tqKhtKAN0oaPHte2KMAR-4" style="edgeStyle=orthogonalEdgeStyle;rounded=0;orthogonalLoop=1;jettySize=auto;html=1;" edge="1" parent="1">
          <mxGeometry relative="1" as="geometry">
            <mxPoint x="1112" y="410" as="sourcePoint" />
            <mxPoint x="980" y="410" as="targetPoint" />
            <Array as="points">
              <mxPoint x="1050" y="410" />
              <mxPoint x="1050" y="410" />
            </Array>
          </mxGeometry>
        </mxCell>
        <mxCell id="-9clWhiXvW8Nyw2myK7u-8" value="Responsta diária dos pedidos de portabilidade. Retorna se a portabilidade será &lt;b&gt;retida&lt;/b&gt; ou se a portabilidade será &lt;b&gt;efetivada&lt;/b&gt;." style="text;html=1;strokeColor=none;fillColor=none;align=center;verticalAlign=middle;whiteSpace=wrap;rounded=0;" parent="1" vertex="1">
          <mxGeometry x="1160" y="110" width="230" height="90" as="geometry" />
        </mxCell>
        <mxCell id="-9clWhiXvW8Nyw2myK7u-12" value="" style="sketch=0;outlineConnect=0;fontColor=#232F3E;gradientColor=none;fillColor=#3F8624;strokeColor=none;dashed=0;verticalLabelPosition=bottom;verticalAlign=top;align=center;html=1;fontSize=12;fontStyle=0;aspect=fixed;pointerEvents=1;shape=mxgraph.aws4.bucket;" parent="1" vertex="1">
          <mxGeometry x="150" y="366" width="75" height="78" as="geometry" />
        </mxCell>
        <mxCell id="-9clWhiXvW8Nyw2myK7u-15" value="democratizacao- dados" style="text;html=1;strokeColor=none;fillColor=none;align=center;verticalAlign=middle;whiteSpace=wrap;rounded=0;" parent="1" vertex="1">
          <mxGeometry x="157.5" y="460" width="60" height="30" as="geometry" />
        </mxCell>
        <mxCell id="-9clWhiXvW8Nyw2myK7u-19" style="edgeStyle=orthogonalEdgeStyle;rounded=0;orthogonalLoop=1;jettySize=auto;html=1;" parent="1" source="-9clWhiXvW8Nyw2myK7u-16" target="-9clWhiXvW8Nyw2myK7u-12" edge="1">
          <mxGeometry relative="1" as="geometry" />
        </mxCell>
        <mxCell id="-9clWhiXvW8Nyw2myK7u-16" value="democratizacao-dados" style="sketch=0;points=[[0,0,0],[0.25,0,0],[0.5,0,0],[0.75,0,0],[1,0,0],[0,1,0],[0.25,1,0],[0.5,1,0],[0.75,1,0],[1,1,0],[0,0.25,0],[0,0.5,0],[0,0.75,0],[1,0.25,0],[1,0.5,0],[1,0.75,0]];outlineConnect=0;fontColor=#232F3E;gradientColor=#945DF2;gradientDirection=north;fillColor=#5A30B5;strokeColor=#ffffff;dashed=0;verticalLabelPosition=bottom;verticalAlign=top;align=center;html=1;fontSize=12;fontStyle=0;aspect=fixed;shape=mxgraph.aws4.resourceIcon;resIcon=mxgraph.aws4.kinesis_data_firehose;" parent="1" vertex="1">
          <mxGeometry x="325" y="366" width="78" height="78" as="geometry" />
        </mxCell>
        <mxCell id="NEdI6T9qCpGgbSEisQpF-2" value="" style="fontColor=#0066CC;verticalAlign=top;verticalLabelPosition=bottom;labelPosition=center;align=center;html=1;outlineConnect=0;fillColor=#CCCCCC;strokeColor=#6881B3;gradientColor=none;gradientDirection=north;strokeWidth=2;shape=mxgraph.networks.mainframe;" parent="1" vertex="1">
          <mxGeometry x="490" y="-50" width="80" height="80" as="geometry" />
        </mxCell>
        <mxCell id="NEdI6T9qCpGgbSEisQpF-4" value="" style="endArrow=classic;startArrow=classic;html=1;rounded=0;" parent="1" source="EYzNvq9kzJKcQ_iYo4Zr-19" target="NEdI6T9qCpGgbSEisQpF-2" edge="1">
          <mxGeometry width="50" height="50" relative="1" as="geometry">
            <mxPoint x="620" y="220" as="sourcePoint" />
            <mxPoint x="670" y="170" as="targetPoint" />
          </mxGeometry>
        </mxCell>
        <mxCell id="tqKhtKAN0oaPHte2KMAR-6" value="Api Gateway" style="sketch=0;points=[[0,0,0],[0.25,0,0],[0.5,0,0],[0.75,0,0],[1,0,0],[0,1,0],[0.25,1,0],[0.5,1,0],[0.75,1,0],[1,1,0],[0,0.25,0],[0,0.5,0],[0,0.75,0],[1,0.25,0],[1,0.5,0],[1,0.75,0]];outlineConnect=0;fontColor=#232F3E;gradientColor=#FF4F8B;gradientDirection=north;fillColor=#BC1356;strokeColor=#ffffff;dashed=0;verticalLabelPosition=bottom;verticalAlign=top;align=center;html=1;fontSize=12;fontStyle=0;aspect=fixed;shape=mxgraph.aws4.resourceIcon;resIcon=mxgraph.aws4.api_gateway;" vertex="1" parent="1">
          <mxGeometry x="900" y="371" width="78" height="78" as="geometry" />
        </mxCell>
        <mxCell id="HIp0SFVx3sXVKCbuj-lm-1" value="&lt;div&gt;ACTC10x - Credito Consignado&lt;/div&gt;&lt;div&gt;ACTC20x - Credito Imobiliário&lt;/div&gt;&lt;div&gt;ACTC30x - Credito Pessoal&lt;/div&gt;&lt;div&gt;ACTC40x - Financiamento de Veículos&lt;/div&gt;&lt;div&gt;ACTC50x - Outros Créditos PF&lt;/div&gt;" style="text;html=1;strokeColor=none;fillColor=none;align=center;verticalAlign=middle;whiteSpace=wrap;rounded=0;" vertex="1" parent="1">
          <mxGeometry x="-235" y="840" width="260" height="220" as="geometry" />
        </mxCell>
        <mxCell id="SkFsixidQeXfe-8qGhiD-7" value="Aplicação Cliente" style="sketch=0;outlineConnect=0;fontColor=#232F3E;gradientColor=none;fillColor=#232F3D;strokeColor=none;dashed=0;verticalLabelPosition=bottom;verticalAlign=top;align=center;html=1;fontSize=12;fontStyle=0;aspect=fixed;pointerEvents=1;shape=mxgraph.aws4.client;" vertex="1" parent="1">
          <mxGeometry x="1120" y="380" width="78" height="76" as="geometry" />
        </mxCell>
      </root>
    </mxGraphModel>
  </diagram>
  <diagram id="fSqXVa3QPr5aR3aDr3bB" name="Fluxograma-stepFunction">
    <mxGraphModel dx="1707" dy="524" grid="1" gridSize="10" guides="1" tooltips="1" connect="1" arrows="1" fold="1" page="1" pageScale="1" pageWidth="827" pageHeight="1169" math="0" shadow="0">
      <root>
        <mxCell id="0" />
        <mxCell id="1" parent="0" />
        <mxCell id="ukypZwsN13RkEe4ScwKm-5" style="edgeStyle=orthogonalEdgeStyle;rounded=0;orthogonalLoop=1;jettySize=auto;html=1;" parent="1" source="ukypZwsN13RkEe4ScwKm-4" edge="1">
          <mxGeometry relative="1" as="geometry">
            <mxPoint x="330" y="170" as="targetPoint" />
          </mxGeometry>
        </mxCell>
        <mxCell id="ukypZwsN13RkEe4ScwKm-4" value="Receber arquivos de portabilidade" style="rounded=1;whiteSpace=wrap;html=1;" parent="1" vertex="1">
          <mxGeometry x="270" y="50" width="120" height="60" as="geometry" />
        </mxCell>
        <mxCell id="iIEAgLjwZbOauSGRBm6F-3" style="edgeStyle=orthogonalEdgeStyle;rounded=0;orthogonalLoop=1;jettySize=auto;html=1;" parent="1" source="iIEAgLjwZbOauSGRBm6F-1" target="iIEAgLjwZbOauSGRBm6F-2" edge="1">
          <mxGeometry relative="1" as="geometry" />
        </mxCell>
        <mxCell id="iIEAgLjwZbOauSGRBm6F-1" value="Validar arquivos de portabilidade" style="rounded=1;whiteSpace=wrap;html=1;" parent="1" vertex="1">
          <mxGeometry x="270" y="170" width="120" height="60" as="geometry" />
        </mxCell>
        <mxCell id="iIEAgLjwZbOauSGRBm6F-6" style="edgeStyle=orthogonalEdgeStyle;rounded=0;orthogonalLoop=1;jettySize=auto;html=1;" parent="1" source="iIEAgLjwZbOauSGRBm6F-2" edge="1">
          <mxGeometry relative="1" as="geometry">
            <mxPoint x="330" y="400" as="targetPoint" />
          </mxGeometry>
        </mxCell>
        <mxCell id="iIEAgLjwZbOauSGRBm6F-2" value="Amarzenar contratos de portabilidade na base de dados" style="rounded=1;whiteSpace=wrap;html=1;" parent="1" vertex="1">
          <mxGeometry x="270" y="280" width="120" height="60" as="geometry" />
        </mxCell>
        <mxCell id="iIEAgLjwZbOauSGRBm6F-38" style="edgeStyle=orthogonalEdgeStyle;rounded=0;orthogonalLoop=1;jettySize=auto;html=1;" parent="1" source="iIEAgLjwZbOauSGRBm6F-4" target="iIEAgLjwZbOauSGRBm6F-21" edge="1">
          <mxGeometry relative="1" as="geometry" />
        </mxCell>
        <mxCell id="iIEAgLjwZbOauSGRBm6F-39" style="edgeStyle=orthogonalEdgeStyle;rounded=0;orthogonalLoop=1;jettySize=auto;html=1;" parent="1" source="iIEAgLjwZbOauSGRBm6F-4" target="iIEAgLjwZbOauSGRBm6F-10" edge="1">
          <mxGeometry relative="1" as="geometry">
            <Array as="points">
              <mxPoint x="330" y="540" />
              <mxPoint y="540" />
            </Array>
          </mxGeometry>
        </mxCell>
        <mxCell id="iIEAgLjwZbOauSGRBm6F-41" style="edgeStyle=orthogonalEdgeStyle;rounded=0;orthogonalLoop=1;jettySize=auto;html=1;" parent="1" source="iIEAgLjwZbOauSGRBm6F-4" target="iIEAgLjwZbOauSGRBm6F-31" edge="1">
          <mxGeometry relative="1" as="geometry">
            <Array as="points">
              <mxPoint x="330" y="540" />
              <mxPoint x="840" y="540" />
            </Array>
          </mxGeometry>
        </mxCell>
        <mxCell id="iIEAgLjwZbOauSGRBm6F-42" style="edgeStyle=orthogonalEdgeStyle;rounded=0;orthogonalLoop=1;jettySize=auto;html=1;" parent="1" source="iIEAgLjwZbOauSGRBm6F-4" target="iIEAgLjwZbOauSGRBm6F-13" edge="1">
          <mxGeometry relative="1" as="geometry">
            <Array as="points">
              <mxPoint x="330" y="540" />
              <mxPoint x="630" y="540" />
            </Array>
          </mxGeometry>
        </mxCell>
        <mxCell id="iIEAgLjwZbOauSGRBm6F-4" value="Verificar situação dos contratos" style="rounded=1;whiteSpace=wrap;html=1;" parent="1" vertex="1">
          <mxGeometry x="270" y="400" width="120" height="60" as="geometry" />
        </mxCell>
        <mxCell id="iIEAgLjwZbOauSGRBm6F-16" style="edgeStyle=orthogonalEdgeStyle;rounded=0;orthogonalLoop=1;jettySize=auto;html=1;" parent="1" source="iIEAgLjwZbOauSGRBm6F-10" target="iIEAgLjwZbOauSGRBm6F-15" edge="1">
          <mxGeometry relative="1" as="geometry" />
        </mxCell>
        <mxCell id="iIEAgLjwZbOauSGRBm6F-10" value="Em análise" style="rounded=1;whiteSpace=wrap;html=1;" parent="1" vertex="1">
          <mxGeometry x="-60" y="650" width="120" height="60" as="geometry" />
        </mxCell>
        <mxCell id="iIEAgLjwZbOauSGRBm6F-18" style="edgeStyle=orthogonalEdgeStyle;rounded=0;orthogonalLoop=1;jettySize=auto;html=1;entryX=0.5;entryY=0;entryDx=0;entryDy=0;" parent="1" source="iIEAgLjwZbOauSGRBm6F-13" target="iIEAgLjwZbOauSGRBm6F-17" edge="1">
          <mxGeometry relative="1" as="geometry" />
        </mxCell>
        <mxCell id="iIEAgLjwZbOauSGRBm6F-13" value="Decurso de prazo (5 dias em análise)" style="rounded=1;whiteSpace=wrap;html=1;" parent="1" vertex="1">
          <mxGeometry x="570" y="650" width="120" height="60" as="geometry" />
        </mxCell>
        <mxCell id="iIEAgLjwZbOauSGRBm6F-15" value="Fim" style="ellipse;whiteSpace=wrap;html=1;aspect=fixed;" parent="1" vertex="1">
          <mxGeometry x="-40" y="770" width="80" height="80" as="geometry" />
        </mxCell>
        <mxCell id="iIEAgLjwZbOauSGRBm6F-20" style="edgeStyle=orthogonalEdgeStyle;rounded=0;orthogonalLoop=1;jettySize=auto;html=1;" parent="1" source="iIEAgLjwZbOauSGRBm6F-17" edge="1">
          <mxGeometry relative="1" as="geometry">
            <mxPoint x="630" y="900" as="targetPoint" />
          </mxGeometry>
        </mxCell>
        <mxCell id="iIEAgLjwZbOauSGRBm6F-17" value="Consultar Informações do Contrato e Responder a CIP" style="rounded=1;whiteSpace=wrap;html=1;" parent="1" vertex="1">
          <mxGeometry x="570" y="770" width="120" height="60" as="geometry" />
        </mxCell>
        <mxCell id="iIEAgLjwZbOauSGRBm6F-24" style="edgeStyle=orthogonalEdgeStyle;rounded=0;orthogonalLoop=1;jettySize=auto;html=1;" parent="1" source="iIEAgLjwZbOauSGRBm6F-21" target="iIEAgLjwZbOauSGRBm6F-23" edge="1">
          <mxGeometry relative="1" as="geometry" />
        </mxCell>
        <mxCell id="iIEAgLjwZbOauSGRBm6F-21" value="Retenção" style="rounded=1;whiteSpace=wrap;html=1;" parent="1" vertex="1">
          <mxGeometry x="270" y="650" width="120" height="60" as="geometry" />
        </mxCell>
        <mxCell id="iIEAgLjwZbOauSGRBm6F-30" style="edgeStyle=orthogonalEdgeStyle;rounded=0;orthogonalLoop=1;jettySize=auto;html=1;" parent="1" source="iIEAgLjwZbOauSGRBm6F-23" target="iIEAgLjwZbOauSGRBm6F-27" edge="1">
          <mxGeometry relative="1" as="geometry" />
        </mxCell>
        <mxCell id="iIEAgLjwZbOauSGRBm6F-23" value="Responder a CIP com o motivo da retenção" style="rounded=1;whiteSpace=wrap;html=1;" parent="1" vertex="1">
          <mxGeometry x="270" y="770" width="120" height="60" as="geometry" />
        </mxCell>
        <mxCell id="iIEAgLjwZbOauSGRBm6F-27" value="Fim" style="ellipse;whiteSpace=wrap;html=1;aspect=fixed;" parent="1" vertex="1">
          <mxGeometry x="290" y="900" width="80" height="80" as="geometry" />
        </mxCell>
        <mxCell id="iIEAgLjwZbOauSGRBm6F-28" value="Fim" style="ellipse;whiteSpace=wrap;html=1;aspect=fixed;" parent="1" vertex="1">
          <mxGeometry x="590" y="900" width="80" height="80" as="geometry" />
        </mxCell>
        <mxCell id="iIEAgLjwZbOauSGRBm6F-35" style="edgeStyle=orthogonalEdgeStyle;rounded=0;orthogonalLoop=1;jettySize=auto;html=1;" parent="1" source="iIEAgLjwZbOauSGRBm6F-31" target="iIEAgLjwZbOauSGRBm6F-17" edge="1">
          <mxGeometry relative="1" as="geometry">
            <Array as="points">
              <mxPoint x="840" y="740" />
              <mxPoint x="630" y="740" />
            </Array>
          </mxGeometry>
        </mxCell>
        <mxCell id="iIEAgLjwZbOauSGRBm6F-31" value="Portar contrato" style="rounded=1;whiteSpace=wrap;html=1;" parent="1" vertex="1">
          <mxGeometry x="780" y="650" width="120" height="60" as="geometry" />
        </mxCell>
      </root>
    </mxGraphModel>
  </diagram>
</mxfile>
